<?xml version="1.0" encoding="utf-8"?>
<!-- Generator: Adobe Illustrator 23.0.1, SVG Export Plug-In . SVG Version: 6.00 Build 0)  -->
<svg version="1.1" id="Layer_1" xmlns="http://www.w3.org/2000/svg" xmlns:xlink="http://www.w3.org/1999/xlink" x="0px" y="0px"
	 viewBox="0 0 427 75" style="enable-background:new 0 0 427 75;" xml:space="preserve">
<style type="text/css">
	.st0{fill-rule:evenodd;clip-rule:evenodd;fill:#333333;}
</style>
<title>Group 6</title>
<desc>Created with Sketch.</desc>
<g id="Primer_plano">
	<g>
		<path class="st0" d="M34.8,7.8c7.8-0.4,17.9,3,21.3,5c-1.1,1-2.7,2.7-3.8,4.5c-1.8,0.1-14.7-6.7-20.4-5.7
			c-6.1,1.1-11.9,4.1-13.6,10.8c-1.4,5.4,9.2,4.8,14.5-4.9h1.3c0,0-3.3,6.4-6,8.7c-6.4,5.6-13.7,5-13.6,0.8
			C14.6,18.1,24.9,8.4,34.8,7.8z M48.4,17.3c-5,1.4-11.7,12.4-12,12.8c-0.5,0.7-5.7,10.9-10.6,16.8C19.7,54.2,15.1,57,11.4,57.3
			C7.8,57.6,4.1,55.9,4,52c-0.2-4.8,3.8-7.7,6.2-7.8c1,0,1.9,0.8,1.8,1.8c-0.2,2.9-4.4,2.5-4.4,2.5S5.8,49,5.8,51.6
			c0,2.2,4.8,7.2,10.2-0.1c6-8,12.1-20.1,17.7-26.3C41.9,15.9,48.4,17.3,48.4,17.3z M73.9,33.4c1.2-0.7,2.4,0,1.8,1.2
			C73,39.9,68.8,43.9,63.3,47C65.9,40.5,69.6,35.7,73.9,33.4z M61.9,20.4c0,0,1.3-0.1,2.8-0.5C58.8,27.6,48,34.6,48,34.7
			c0,0,0.5,0.1,0.6,0c7.9-5.9,10.6-1.3,9.4,1c-3.4,6.6-5.4,8.6-9,15.2c-0.6,1.2-0.6,2.5,2.7,1.7c1.4-0.3,3-1.4,4.1-2.4
			c3.6-11.8,13.9-19.7,19.6-18.6c1.1,0.2,2.1,1.7,1.8,2.8c-1.8,6.8-8.8,11.3-14.9,15.8c-0.7,0.5,0.9,7.6,10.6-4.4h1.6
			c-11.6,17.2-19.3,9.4-19,7.1c-0.8,0.4-4.9,3.1-8.9,3.8c-3.7,0.7-4.7-1.3-4.5-2.7c0.7-4,9-16.2,9.4-17.4c0.3-1-0.5-1.6-1.1-1.3
			c-2.8,1.5-2.6-0.6-16.4,21.3h-6c-0.1-0.3,17.4-27.3,18.2-28.5c4-6,20.8-27.4,24-19.2c0.2,0.6,0.2,1.1-0.3,2.3c0,0-0.8,0.5-2.3,0.5
			c1.2-2.2-0.1-3-0.7-2.6c-6.6,3.4-16.4,21.1-16.4,21.1C55.6,27.4,61.4,21.2,61.9,20.4z M64,14c-1.7,2.2-2.1,2.7-3.8,5.2
			c6.2,1.1,17.5-7.3,18.7-11.1C74.7,11.2,71.4,13.3,64,14z"/>
		<path class="st0" d="M119.2,7.7c3.6-0.6,6,1.1,5.6,4.7c-0.7,5.4-5.2,6.3-5.3,3.8c-0.1-3.1,2.2-3.5,3.5-3.8
			c0.7-1.4-0.6-3.5-3.9-1.9c-20.2,10-35.8,48-9.3,43.5c7.2-1.2,14-3.7,23.1-5.3c16.5-2.9,25,7.8,25,7.8s-13.8-6-17.7,0.5
			c-3.9-4.7-9.4-5.2-15.8-4.6c-9.3,0.9-18.2,5.5-24.8,4.3c-8.3-1.5-9.6-5.4-10.8-11.4C86.8,33.9,103,10.7,119.2,7.7z M198.7,7.7
			c1.9-0.1,3.1,0.3,3.9,1.3c10.5-4.2,20,3,22.7,4.5c-1,0.7-3,3.2-3.9,4.1c-2.1,0-13.2-8.7-17.6-6.6c0.1,2.7-1.2,10.7-7.3,15.1
			c-5.3,3.8-7.5,0.8-6.7-3.2c0.3-1.8,3.3-8.5,10.9-12.8c0,0-1.4-0.3-2.1-0.1c-15.8,4-37.5,40.5-24.7,43.1c5.9,1.2,14.1-10,14-16.2
			c0-0.9-0.2-3.2-2.5-2.1c-2.2,1.1-4.3,4.3-4.8,8c-2.9,0.4-6.5,4.5-6.5,4.5c-0.1-1.9,3.3-15.3,12.4-15.1c5.5,0.1,3,10.1-1.2,15.5
			c-10.6,13.7-21.4,11.3-22.1,0.4C162.6,37.1,180.2,8.7,198.7,7.7z M202.2,11.6c0.6,6-5.4,13-8.1,14.1c-3,1.2-2.9-0.3-2.9-1.2
			C190.9,21.4,197,12.9,202.2,11.6z M120.2,20.2c2-0.9,5.6-0.1,5.7,2.4c0.2,2.6-0.3,4.3-1.4,6.5c5.1-0.4,9.4-10.2,15.8-9.2
			c5.6,0.8,2.4,9.2-0.7,9c-1.7-0.1-1.4-1.4-1.3-2.5c0.2-1.3,1.7-2.5,3.4-2.5c0-0.4-0.2-1.8-1.6-1.7c-2.2,0.2-7.9,5.5-10.9,14.4
			c-0.7,1.9-0.1,5.1,2.3,4.5c1.9-0.5,3.6-1.2,6-4.3c8.2-10.4,11.5-15.5,16.4-16.7c3-0.8,4.2,0.9,4.3,0.9s0.8-0.6,1.1-1h4.9
			c-0.5,0.9-6.3,11.1-10.4,18.3c-0.6,1.1,0.1,1.8,0.5,1.6c3.1-1.8,5.6-5,7.3-7.6l1.2-0.1c0,0.2-4.1,7.9-9.1,11.2
			c-4.4,2.8-6.1,0.7-6.5-2c-0.6,0.8-10.5,9-9-2.9c-5.3,7.6-21.6,11.5-12.2-8c-1.4,0.4-1.5,0.3-2.5,0.5c0,0-6.1,12.6-13.3,13.7
			c-2.5,0.4-3.9-1.2-4.1-3.2C105.4,34.1,112.2,23.8,120.2,20.2z M167.8,20c1.6,0.1,2.2-0.1,4.7-0.1c-1,1.7-2.2,4.2-2.6,4.2
			c-2.1,0-4.7,0.3-4.4-0.2C166.3,22.3,166.6,21.9,167.8,20z M121.6,22.4c5-1.2,2.4,5.3,0.9,6.9c-1.9-0.2-3.7-1.3-3.6-3.2
			C118.9,25.3,119.8,22.9,121.6,22.4z M155.6,22.3c0.5-0.2,1.7-0.2,1.2,0.9c-1.8,4.2-8.8,16.1-11.4,16.5c-1.3,0.2-1.1-1.5-0.9-2.1
			C146.4,32.2,151.6,23.9,155.6,22.3z M122,31c-1.8,3.5-3.3,5.8-6.6,8.3c-2.5,1.9-3.7-0.8-3.2-2.5c1.1-3.9,3.2-7.2,4.9-9
			C118.4,29.6,118.9,30.3,122,31z M203.9,35.1h0.3H203.9z M203.9,34.4c1.3,0,1.6,1.1,1.7,2.3c0,2-1.6,4.4-1.8,5.3
			c0,0-3.4-0.2-3.5-3.4C200.2,36.3,202,34.4,203.9,34.4z M232.4,35c1.1-0.6,2.9-0.4,2,1c-3.3,5.5-4.4,8.1-7.8,13
			c-2.7,3.9-5.2,4.4-4.4,0.8C223.5,44.2,230.8,35.9,232.4,35z M198.3,40.1c0,0,0.8,2.6,4.7,3.7c-0.7,1.1-3,5.3-5.4,7
			C191.4,55.5,193.1,45.6,198.3,40.1z M250.4,7.9c0,0-6.6,13.3-22.3,12.7c0,0,4-4.9,5-4.9C233.1,15.6,238.4,17.2,250.4,7.9z
			 M237.2,13.5c0-0.2,1.1-1.6,1.1-3.1c0-0.5-0.3-1-0.8-1c0,0-9.2,4.1-21.4,28.1c0,0,0.7,1.8,16.2-15.8l1.6-0.1
			c0,0-6.2,10.1-20.3,20.4c-1.4,3.4-1.3,3.3-2.5,8.1c-0.3,1.1,0.4,4.5,3.5,0.9c2.9-3.5,9.1-16,16.6-18.8c1.7-0.6,3.9,0.2,4.5,1.2
			c0,0,0.7-0.7,1.1-1.3c1.5-0.2,3.7,0.1,4.8,0c0.1,0.4-5.5,10.5-10,18.8c-0.5,1,0.2,1.7,0.5,1.4c2.7-2,3.2-1.8,7-7.6c0,0,0,0,1,0
			c-2.2,5.7-13.4,18.1-15,9.1h-0.5c-0.6,0.9-9,7.7-9.1-1.4c-4,5.1-9.5,6-10.2,2.1c-0.7-4.1,1.9-10.2,1.9-10.2h-2.6
			c-0.7,0.9-5.7,11-13,12.7c-2.5,0.6-4.7-1.6-4.3-5c1-8.9,10.2-18.7,15.4-19.6c2.5-0.4,4.9,0.5,4.6,4.7c-0.2,2.1-1.4,4.6-1.6,5.3
			c0,0,2.4,0,2.9-1.1c8.1-19.2,24.3-33.4,29.1-33.5c0.3,0,2.1,0.3,2.2,2.4c0,0.8-0.3,1.9-0.7,2.9C238.9,13.4,238.4,13.5,237.2,13.5z
			"/>
		<path class="st0" d="M288.1,8.6c2.1,0.2,5.3,4.2,0.7,8.7c-1.6,1.6-3.1,0.5-3.1-0.8c0-2,1.9-3.9,3.7-3.6c0.6-3.2-2.2-2.7-4.7-1.6
			c-17.1,7.5-36.3,43.5-19,42c3-0.3,11.8-8.1,12.5-16.8c0.1-1.3-0.4-2.6-3.1-1.9c-3,0.8-4.4,7.7-4.7,7.9c-0.7,0.5-2.1-0.6-6.8,4.5
			c0,0,1.6-13.8,11.3-15.2c10.1-1.5,1.7,16.5-5.6,21.6c-13.2,9.3-16.8-2-16.4-6.9C254.1,30.5,274.4,7.2,288.1,8.6z M340.8,32h5.3
			c0,0.2-1,2.1-1,2.1c1.7-1.2,3-2.2,5.2-2.5c3.4-0.4,4,2.3,3.5,4.4c-2.1,9.1-9.4,15.7-9.4,15.9c12.6-6.3,16.2-20,24-20.4
			c1.3-0.1,2,0.1,3.1,1.2c0.4,0.3,0.1,0.3,0.7-0.6h5c0,0.2-8.3,14.6-10.1,18.2c-1,2,0.2,2.4,0.8,2.1c7.4-4.1,15.2-19.1,16.4-20.3
			h5.1c0,0.2-0.4,0.7-1.7,3.1c0.3-0.1,5.1-4.3,8.5-2.9c1.6,0.7,1.2,3.3,0.7,4.4c0,0-8.6,14-8.6,14.8s0.7,1.1,1.2,1
			c4.4-1.2,10.8-8.6,17-20.4h5.3c0,0-10.5,17.2-12.5,20.7c-0.2,0.3-0.2,2.3,1.3,1.3c8-4.9,10.2-10.7,16.9-22h5.3
			c0,0-22.2,37.3-24.5,41.7c-3.4,0.2-3.2-0.1-5.2,0l11.1-19.1c0,0-9.5,6.6-10-0.4c0,0,0.2-1.3,1.4-3.9c0,0-13.4,12.9-13.3,3.1
			c0.1-3.8,9.1-15.3,9.1-17.2c0-0.5-0.2-0.8-0.7-0.8c-4.7-0.1-13.9,18-16.1,21.3c-0.8,0-5.5,0-5.5,0l3.1-5.4
			c-3.6,3.8-12.4,9.2-11.4,1.6c0,0-4.6,4.3-6.5,3.8c-5.5-1.3-1.7-8.6-1.7-8.6c-0.5,0.2-14.8,13.2-19.6,7.2c-5.2,8.9-5,9-5.5,9.7
			c-4.9,7.9-3.8,6.4-5.2,8.8c-0.8,0-3.7,0-5.2,0.2l13.1-23.8c-0.5,0.1-5.1,5-9.3,6.1c-0.6,0.1-4.2,0.9-4.1-3.1
			c0.1-3.4,8.9-15.2,8.9-17.5c0-0.5-0.1-1-1.4-0.6c-1.2,0.4-3.8,2-8.2,9c-1.2,2-5.6,9.5-7.3,12.3h-5l11.8-21
			c-0.4-0.9-0.5-0.8-1.2-0.6c-6.2,1.6-13.3,17.7-15.6,21.6h-5.4c2.3-4.1,9.6-17,9.6-17s-3,2-7.5,2.7c-0.6,0.1-6.3,12.1-13.7,14.1
			c-3.5,0.9-5-1.7-4.8-4.2c0.8-10.8,12-21.4,16.7-20.8c2.3,0.3,3.7,1.5,3.5,4.7c-0.1,1.9-1.1,4.8-1.1,4.8s6.7,0,11-8.9
			c7,0,0.8,0,5.5,0c0,0-1,1.5-1.5,2.7c0,0,11.4-8,9.7,0.9c1.5-1.1,9.2-8.3,10.5-1.6c0.5,2.7-8.6,15.8-8.5,17.3c0,1,0.9,1,1.3,1
			s6-3.2,10-9.1C336.8,39.2,340.8,32.1,340.8,32z M293.9,33.8c0.1,0,1.8,0.4,1.8,2.6c0,1.7-0.6,3.3-1.4,4.7c0,0-4.2-0.4-4-3.4
			C290.5,35.1,292.5,33.8,293.9,33.8z M367.6,34.8c2.3-1.7,2.4-0.4,2.2,0c-0.7,2.1-3.1,7.4-8.5,15c-1.2,1.7-3.9,3.6-3.5,0.9
			C358.6,44.2,365.4,36.4,367.6,34.8z M346.4,36.3c1,0,1.5,0.7,1.5,1.5c0,1.3-5.1,12.4-9.9,15.7c-3.1,2.8-3.8,0.3-3.8-0.4
			c0-0.4,8.2-15.4,10-15.9C344.5,36.5,345.6,36.3,346.4,36.3z M288.5,39c0.6,0.6,1.4,2.6,5.1,3.5c0,0-4.5,8.4-7.7,9.1
			c-2.3,0.5-2.4-0.4-2.6-1.8C283,47.2,287,40,288.5,39z"/>
	</g>
</g>
</svg>
